<svg class="svg-icon" style="width: 1em; height: 1em;vertical-align: middle;fill: currentColor;overflow: hidden;" viewBox="0 0 1024 1024" version="1.1" xmlns="http://www.w3.org/2000/svg"><path d="M643.6 481.4l-2.6-1.2c-10.8-4.9-15.6-17.7-10.7-28.6l167.4-367c4.9-10.8 17.7-15.6 28.6-10.7l2.6 1.2c10.8 4.9 15.6 17.7 10.7 28.6l-167.4 367c-5 10.8-17.8 15.6-28.6 10.7z" fill="#4AD1CD" /><path d="M652.4 488.3c-3.7 0-7.4-0.8-10.9-2.4l-2.6-1.2c-13.3-6-19.2-21.8-13.2-35.2l167.4-367c6-13.3 21.8-19.2 35.2-13.2l2.6 1.2c13.3 6 19.2 21.8 13.2 35.2l-167.4 367c-4.5 9.8-14.2 15.6-24.3 15.6z m-6.7-11.4c8.3 3.8 18.1 0.1 22-8.3l167.4-367c3.8-8.3 0.1-18.2-8.2-22l-2.6-1.2c-8.3-3.7-18.2-0.1-22 8.2l-167.4 367c-3.8 8.3-0.1 18.2 8.2 22l2.6 1.3z" fill="" /><path d="M419.7 391.9l-59-20c-4-1.4-8.4-0.7-11.8 1.9L299.1 411c-8.5 6.4-20.6 0.2-20.5-10.4l0.7-62.3c0-4.2-2-8.2-5.4-10.6L223 291.9c-8.7-6.1-6.6-19.5 3.6-22.7l59.5-18.6c4-1.3 7.2-4.4 8.4-8.4l18.4-59.5c3.1-10.1 16.5-12.3 22.7-3.6l36 50.8c2.4 3.4 6.4 5.5 10.6 5.4l62.3-0.9c10.6-0.1 16.8 12 10.4 20.5l-37.2 49.9c-2.5 3.4-3.2 7.8-1.9 11.8l20.1 59c3.5 10.1-6.1 19.7-16.2 16.3z" fill="#FF3B59" /><path d="M291.4 418.6c-2.7 0-5.5-0.6-8.1-1.9-6.1-3.1-9.8-9.3-9.7-16.1l0.7-62.3c0-2.6-1.2-5-3.3-6.5l-50.9-35.9c-5.6-3.9-8.4-10.6-7.3-17.3 1.1-6.7 5.8-12.2 12.3-14.2l59.5-18.6c2.5-0.8 4.4-2.7 5.1-5.1l18.4-59.5c2-6.5 7.5-11.2 14.2-12.3 6.7-1.1 13.4 1.7 17.3 7.3l36 50.8c1.5 2.1 3.9 3.3 6.5 3.3l62.3-0.9c6.9-0.1 13 3.6 16.1 9.7 3.1 6.1 2.5 13.3-1.6 18.7l-37.2 49.9c-1.5 2.1-2 4.7-1.1 7.2l20.1 59c2.2 6.5 0.6 13.5-4.3 18.3-4.8 4.8-11.8 6.5-18.3 4.3l-59-20c-2.4-0.8-5.1-0.4-7.2 1.1L302.1 415c-3.2 2.4-6.9 3.6-10.7 3.6z m33.8-239.9c-0.4 0-0.9 0-1.3 0.1-3 0.5-5.3 2.5-6.2 5.4l-18.4 59.5c-1.7 5.6-6.1 10-11.7 11.7L228.1 274c-2.9 0.9-4.9 3.2-5.4 6.2s0.7 5.8 3.2 7.6l50.9 35.9c4.8 3.4 7.6 8.9 7.5 14.8l-0.7 62.3c0 3 1.6 5.7 4.3 7 2.7 1.4 5.8 1.1 8.2-0.7l49.8-37.3c4.7-3.5 10.8-4.5 16.4-2.6l59 20c2.9 1 5.9 0.3 8-1.9 2.1-2.1 2.8-5.2 1.9-8l-20.1-59c-1.9-5.6-0.9-11.7 2.6-16.4l37.2-49.9c1.8-2.4 2.1-5.5 0.7-8.2-1.4-2.7-4-4.3-6.9-4.3h-0.1l-62.3 0.9c-5.9 0.1-11.4-2.7-14.8-7.5l-36-50.8c-1.5-2.3-3.8-3.4-6.3-3.4z" fill="" /><path d="M835.7 460.8c-15.5-77.9-84.3-136.7-166.8-136.7-68 0-126.6 39.9-153.8 97.5 12.1 23.4 18.9 49.9 18.9 78 0 6.5-0.4 12.9-1.1 19.3 123.7-2.6 232.7-24.8 302.8-58.1z" fill="#BF7360" /><path d="M527.3 524l0.6-5.7c0.7-6.6 1.1-12.7 1.1-18.8 0-26.7-6.2-52.2-18.3-75.7l-1.1-2.2 1.1-2.2c14-29.6 35.9-54.6 63.4-72.4 28.3-18.3 61.1-28 94.9-28 83.3 0 155.5 59.2 171.7 140.7l0.8 3.8-3.5 1.7c-73 34.7-184.1 56-304.8 58.6l-5.9 0.2z m-6.6-102.5c12.2 24.3 18.3 50.6 18.3 78.1 0 4.6-0.2 9.3-0.6 14.2 115.2-3 220.9-23.2 291.6-55.8-16.8-74.9-83.9-128.9-161.1-128.9-31.9 0-62.8 9.1-89.5 26.3-25.2 16.4-45.5 39.2-58.7 66.1z" fill="" /><path d="M500.6 519.1c-1.2-8.1-1.8-16.4-1.8-24.9 0-26 5.8-50.6 16.2-72.6-28.3-54.7-85.3-92.1-151.2-92.1-82.8 0-151.8 59.2-166.9 137.5-2 10.5-3.1 21.4-3.1 32.6 0 28.2 305.7 111.2 323.9 72.6-8.4-16.4-14.3-34.3-17.1-53.1z" fill="#FFD495" /><path d="M482.7 587.3c-4.5 0-9.3-0.2-14.5-0.5-25.2-1.5-58.7-6.9-96.8-15.4-43.2-9.7-87.8-22.5-122.3-35.1-53.5-19.5-60.3-29.9-60.3-36.7 0-11.1 1.1-22.4 3.2-33.5 15.8-82 88.1-141.6 171.8-141.6 65.7 0 125.4 36.3 155.6 94.8l1.1 2.2-1.1 2.2c-10.4 22.1-15.7 45.8-15.7 70.5 0 8.2 0.6 16.3 1.7 24.2 2.7 17.9 8.3 35.3 16.6 51.6l1.1 2.2-1 2.2c-4 8.7-16.7 12.9-39.4 12.9z m-283.9-87.8c0.3 0.8 7.9 14.6 94.7 41 57.5 17.5 119.8 31 162.8 35.3 16.9 1.7 30.6 1.9 40.5 0.7 9.1-1.1 13.2-3.2 15.1-4.8-8.1-16.5-13.5-33.9-16.2-51.9-1.2-8.3-1.9-16.9-1.9-25.6 0-25.3 5.3-49.7 15.6-72.5-28.9-53.9-84.4-87.2-145.6-87.2-79 0-147.1 56.1-162 133.4-2 10.5-3 21.1-3 31.6z" fill="" /><path d="M539.6 383.1m-170.1 0a170.1 170.1 0 1 0 340.2 0 170.1 170.1 0 1 0-340.2 0Z" fill="#943423" /><path d="M539.6 558.2c-96.6 0-175.1-78.5-175.1-175.1S443 208 539.6 208s175.1 78.5 175.1 175.1-78.5 175.1-175.1 175.1z m0-340.2c-91 0-165.1 74.1-165.1 165.1s74.1 165.1 165.1 165.1 165.1-74.1 165.1-165.1S630.6 218 539.6 218z" fill="" /><path d="M873.9 483.6c0-8.1-1.1-16-3.1-23.8-1.5-5.8-8.1-8.7-13.5-5.9-73.2 39.3-198.1 65.2-340 65.2-137.9 0-259.8-24.5-333.7-61.9-5.5-2.8-12.1 0.4-13.4 6.4-1.4 6.6-2.2 13.2-2.2 20 0 85.3 117.4 156.7 274.7 174.8 28.4 3.3 50 27.2 50 55.8v112.2c0 24.6-15.9 46.3-39.4 53.6l-149.4 47c-10.2 3.2-7.9 18.3 2.8 18.3h422.2c10.7 0 13-15.1 2.8-18.3l-150.6-47.4c-23.4-7.4-39.4-29.1-39.4-53.6V715c0-28.9 21.9-52.9 50.6-55.9 160.8-16.8 281.6-89 281.6-175.5z" fill="#4AD1CD" /><path d="M728.9 950.3H306.7c-7.2 0-13.1-5-14.2-12.2-1.1-7.2 3-13.7 9.9-15.9l149.4-47c21.5-6.7 35.9-26.3 35.9-48.8V714.2c0-26-19.6-47.8-45.6-50.8-77.5-8.9-148-31.3-198.4-62.9-25.4-16-45.3-33.9-59-53.2-14.4-20.3-21.7-41.7-21.7-63.6 0-6.8 0.8-13.7 2.3-21 1-4.4 3.8-8.1 7.9-10 4-1.9 8.7-1.9 12.7 0.2 75.9 38.4 199.8 61.4 331.4 61.4 136.1 0 262.3-24.2 337.6-64.6 4-2.1 8.6-2.2 12.7-0.4 4 1.8 6.9 5.2 8 9.5 2.2 8.6 3.3 16.8 3.3 25.1 0 22.2-7.5 43.9-22.3 64.5-14.1 19.6-34.5 37.6-60.5 53.7-51.9 31.9-124 54.1-203.2 62.3-26.3 2.7-46.1 24.6-46.1 50.9v111c0 22.4 14.4 42 35.9 48.8l150.6 47.4c6.9 2.2 11 8.7 9.9 15.9-1.2 6.9-7.1 11.9-14.3 11.9zM179.4 461.2c-0.8 0-1.5 0.2-1.9 0.4-1.2 0.6-2.1 1.7-2.4 3.1-1.4 6.6-2.1 12.8-2.1 18.9 0 19.8 6.7 39.3 19.9 57.9 13 18.3 31.8 35.2 56.1 50.5 49.2 30.9 118.2 52.7 194.3 61.5 31 3.6 54.4 29.7 54.4 60.8v112.2c0 26.9-17.2 50.4-42.9 58.4l-149.4 47c-3.3 1-3.1 4-3 4.8 0.1 0.9 0.8 3.7 4.3 3.7h422.2c3.5 0 4.2-2.8 4.3-3.7 0.1-0.9 0.3-3.8-3-4.8l-150.6-47.4c-25.7-8.1-42.9-31.6-42.9-58.4V715c0-31.4 23.7-57.6 55.1-60.9 160.6-16.8 277.1-88.5 277.1-170.5 0-7.5-1-14.8-2.9-22.6-0.4-1.7-1.7-2.5-2.4-2.8-1.3-0.6-2.7-0.5-3.9 0.1-76.7 41.2-204.7 65.8-342.3 65.8-133.1 0-258.7-23.3-336-62.4-0.8-0.4-1.4-0.5-2-0.5z" fill="" /></svg>